Coordinates
version=1
nRows=4
nColumns=107
inDegrees=yes

Units are S.I. units (second, meters, Newtons, ...)
If the header above contains a line with 'inDegrees', this indicates whether rotational values are in degrees (yes) or radians (no).

endheader
time	sternoclavicular_r2	sternoclavicular_r3	unrotscap_r3	unrotscap_r2	acromioclavicular_r2	acromioclavicular_r3	acromioclavicular_r1	unrothum_r1	unrothum_r3	unrothum_r2	elv_angle	shoulder_elv	shoulder1_r2	shoulder_rot	elbow_flexion	pro_sup	deviation	flexion	proximal_distal_r1	proximal_distal_r3	cmc_flexion	cmc_abduction	mp_flexion	ip_flexion	mcp2_flexion	mcp2_abduction	pm2_flexion	md2_flexion	mcp3_flexion	mcp3_abduction	pm3_flexion	md3_flexion	mcp4_flexion	mcp4_abduction	pm4_flexion	md4_flexion	mcp5_flexion	mcp5_abduction	pm5_flexion	md5_flexion	bicpt_tx	bicpt_ty	bicpt_tz	bicpt2_tx	bicpt2_ty	bicpt2_tz	ptpt_tx	ptpt_ty	ptpt_tz	FCUpt_tx	FCUpt_ty	FCUpt_tz	EDCpt_tx	EDCpt_ty	EDCpt_tz	APLpt_tx	APLpt_ty	APLpt_tz	FPLpt_tx	FPLpt_ty	FPLpt_tz	FPLpt2_tx	FPLpt2_ty	FPLpt2_tz	PEC1pt2_tx	PEC1pt2_ty	PEC1pt2_tz	PEC1pt3_tx	PEC1pt3_ty	PEC1pt3_tz	PEC2pt2_tx	PEC2pt2_ty	PEC2pt2_tz	PEC2pt3_tx	PEC2pt3_ty	PEC2pt3_tz	PEC3pt2_tx	PEC3pt2_ty	PEC3pt2_tz	PEC3pt3_tx	PEC3pt3_ty	PEC3pt3_tz	DELT2pt2a_tx	DELT2pt2a_ty	DELT2pt2a_tz	DELT2pt2_tx	DELT2pt2_ty	DELT2pt2_tz	LAT1pt2_tx	LAT1pt2_ty	LAT1pt2_tz	LAT1pt3_tx	LAT1pt3_ty	LAT1pt3_tz	LAT2pt2_tx	LAT2pt2_ty	LAT2pt2_tz	LAT2pt3_tx	LAT2pt3_ty	LAT2pt3_tz	LAT3pt2_tx	LAT3pt2_ty	LAT3pt2_tz	LAT3pt3_tx	LAT3pt3_ty	LAT3pt3_tz
      0.00000000	     -0.32943734	      0.13953411	     -0.13953411	      0.32943734	     -0.06670436	      0.53908117	      0.24231328	     -0.24231328	     -0.53908117	      0.06670436	     98.37442281	     77.99721832	     -1.71695758	    -17.33534875	     27.99085121	     39.25549133	      0.18088231	     -0.03844011	      0.21870251	     -0.01922006	     32.31378584	    -19.16100214	     14.26639676	      4.07595129	     -3.52414830	     11.92339823	     14.22707911	    -27.44470050	     -9.98279577	      2.38150463	      8.08338497	     11.42473295	    -16.14775105	      1.53058839	      2.04622284	     22.31591053	    -30.17286512	    -13.83357256	     10.03385505	      5.11949335	      0.00082585	     -0.03080818	     -0.00481675	      0.01657238	     -0.01780385	     -0.00754912	      0.00464946	     -0.06677554	     -0.00321224	      0.00770537	     -0.18351047	     -0.00038093	     -0.00471065	      0.00135004	      0.00015162	      0.00003810	      0.00001524	      0.00007621	      0.00004877	      0.00014632	      0.00008230	     -0.00001116	     -0.00022776	     -0.00027331	      0.00255658	      0.00896969	      0.00623978	     -0.00836304	      0.02019263	     -0.01915267	      0.00255658	      0.00896969	      0.00623978	      0.00056331	      0.01871935	     -0.00983632	      0.00401661	      0.00498793	      0.01613304	      0.00000000	      0.00813874	      0.00000000	     -0.00732308	     -0.03384215	     -0.00671270	      0.01219112	     -0.00035154	     -0.00243041	     -0.00090997	      0.01525280	     -0.00623978	      0.00251325	      0.02201257	     -0.01819937	     -0.00610979	      0.01321621	     -0.00558981	     -0.01273956	      0.02790570	     -0.03124225	     -0.02391917	      0.01477615	     -0.00749641	     -0.01585945	      0.03223888	     -0.03904197
      0.03333333	     -0.32529407	      0.13777922	     -0.13777922	      0.32529407	     -0.06586543	      0.53230126	      0.23926575	     -0.23926575	     -0.53230126	      0.06586543	     99.09615683	     77.01626293	     -1.72955421	    -22.20692722	     28.67912046	     45.72759980	      0.19473747	      0.03582207	      0.23324619	      0.01791104	     33.23805501	    -19.03752339	     12.14871775	      6.96447417	     -4.69027007	     12.36422007	     12.88586107	    -23.87745866	    -10.33129676	      2.89538737	      8.83772731	     10.56521120	    -15.95303312	      1.78636147	      2.99061716	     18.93702677	    -26.90895239	    -13.86116449	      7.59309277	      5.17771943	      0.00084862	     -0.03088707	     -0.00482946	      0.01654762	     -0.01799082	     -0.00683563	      0.00417125	     -0.06708476	     -0.00373360	      0.00836194	     -0.18337126	     -0.00041474	     -0.00548730	      0.00161829	      0.00009642	     -0.00003771	     -0.00001508	     -0.00007542	     -0.00004827	     -0.00014481	     -0.00008146	     -0.00001189	     -0.00021719	     -0.00026063	      0.00252442	      0.00885688	      0.00616131	     -0.00825786	      0.01993867	     -0.01891179	      0.00252442	      0.00885688	      0.00616131	      0.00055623	      0.01848392	     -0.00971261	      0.00397996	      0.00492520	      0.01604538	      0.00000000	      0.00793383	      0.00000000	     -0.00723098	     -0.03341653	     -0.00654266	      0.01501720	     -0.00050067	     -0.00410212	     -0.00089852	      0.01506097	     -0.00616131	      0.00248164	      0.02173572	     -0.01797048	     -0.00603295	      0.01304999	     -0.00551950	     -0.01257933	      0.02755473	     -0.03084932	     -0.02361834	      0.01459032	     -0.00740212	     -0.01565999	      0.03183342	     -0.03855095
      0.06666667	     -0.32893827	      0.13932273	     -0.13932273	      0.32893827	     -0.06660331	      0.53826452	      0.24194620	     -0.24194620	     -0.53826452	      0.06660331	     98.35186259	     77.87905994	     -1.71656383	    -17.88036738	     28.51566840	     41.82269601	      0.23137560	      0.05832807	      0.27019077	      0.02916404	     32.86390111	    -18.68702754	     12.10935598	      6.78336620	     -4.45562607	     12.44027592	     12.73571216	    -23.93363623	    -10.13397195	      3.08829953	      9.14998499	     10.98369781	    -15.28034649	      1.95591320	      2.17774357	     19.58714643	    -25.84720756	    -13.91561028	      7.09119908	      5.19456017	      0.00084321	     -0.03086833	     -0.00482644	      0.01657402	     -0.01794642	     -0.00727313	      0.00445977	     -0.06689819	     -0.00341904	      0.00796426	     -0.18345668	     -0.00039811	     -0.00501871	      0.00145490	      0.00013244	     -0.00006253	     -0.00002501	     -0.00012505	     -0.00008003	     -0.00024010	     -0.00013506	     -0.00001162	     -0.00022158	     -0.00026589	      0.00255270	      0.00895610	      0.00623033	     -0.00835037	      0.02016204	     -0.01912365	      0.00255270	      0.00895610	      0.00623033	      0.00056246	      0.01869099	     -0.00982142	      0.00401221	      0.00498037	      0.01612260	      0.00000000	      0.00811392	      0.00000000	     -0.00731198	     -0.03379089	     -0.00669211	      0.01252307	     -0.00036775	     -0.00259843	     -0.00090859	      0.01522970	     -0.00623033	      0.00250944	      0.02197922	     -0.01817180	     -0.00610053	      0.01319619	     -0.00558134	     -0.01272026	      0.02786342	     -0.03119492	     -0.02388293	      0.01475377	     -0.00748505	     -0.01583542	      0.03219004	     -0.03898283
      0.10000000	     -0.32745136	      0.13869294	     -0.13869294	      0.32745136	     -0.06630224	      0.53583138	      0.24085252	     -0.24085252	     -0.53583138	      0.06630224	     98.61440773	     77.52702040	     -1.72114610	    -19.57405271	     28.73878472	     44.21874995	      0.23916073	      0.08607003	      0.27775796	      0.04303501	     33.30683049	    -18.65647726	     11.52141255	      7.07646204	     -5.14684666	     12.64123028	     12.24375626	    -21.10777209	    -10.33395925	      3.28849220	      9.33728934	     11.35661040	    -15.31929719	      1.94354585	      2.75618317	     19.64827859	    -24.52145742	    -13.95299819	      6.69222168	      5.18039329	      0.00085059	     -0.03089390	     -0.00483056	      0.01656194	     -0.01800703	     -0.00700720	      0.00428273	     -0.06701267	     -0.00361206	      0.00820772	     -0.18340478	     -0.00040967	     -0.00530624	      0.00155460	      0.00011131	     -0.00009427	     -0.00003771	     -0.00018853	     -0.00012066	     -0.00036198	     -0.00020361	     -0.00001194	     -0.00021637	     -0.00025964	      0.00254117	      0.00891561	      0.00620217	     -0.00831263	      0.02007090	     -0.01903721	      0.00254117	      0.00891561	      0.00620217	      0.00055992	      0.01860650	     -0.00977703	      0.00399909	      0.00495786	      0.01609130	      0.00000000	      0.00804019	      0.00000000	     -0.00727893	     -0.03363814	     -0.00663092	      0.01352926	     -0.00041889	     -0.00315175	     -0.00090448	      0.01516085	     -0.00620217	      0.00249809	      0.02187987	     -0.01808965	     -0.00607296	      0.01313653	     -0.00555611	     -0.01266276	      0.02773747	     -0.03105390	     -0.02377497	      0.01468708	     -0.00745121	     -0.01576384	      0.03204453	     -0.03880661
